<?xml version="1.0" encoding="utf-8"?>
<!-- Generator: Adobe Illustrator 25.1.0, SVG Export Plug-In . SVG Version: 6.00 Build 0)  -->
<svg version="1.1" id="Layer_1" xmlns="http://www.w3.org/2000/svg" xmlns:xlink="http://www.w3.org/1999/xlink" x="0px" y="0px"
	 viewBox="0 0 56 56.2" style="enable-background:new 0 0 56 56.2;" xml:space="preserve">
<style type="text/css">
	.st0{fill:#C23659;}
</style>
<g id="Layer_2_1_">
	<path class="st0" d="M28,0.2c-15.5,0-28,12.5-28,28s12.5,28,28,28s28-12.5,28-28S43.5,0.2,28,0.2z M26,9.2h4v15h-4V9.2z M28,44
		c-8.4,0-15.1-6.8-15.1-15.2c0-5.8,3.4-11.1,8.6-13.6v4c-3.2,2.2-5.1,5.8-5.1,9.7c0,6.4,5.1,11.7,11.6,11.7
		c6.4,0,11.7-5.1,11.7-11.6c0-3.9-1.9-7.5-5.1-9.7v-4C42,18.9,45.1,28,41.4,35.5C38.9,40.7,33.7,43.9,28,44z"/>
</g>
</svg>
