<svg id="Layer_2" data-name="Layer 2" xmlns="http://www.w3.org/2000/svg" viewBox="0 0 44 59.5"><defs><style>.cls-1{fill:#fff;}.cls-2{fill:none;stroke:red;stroke-miterlimit:10;}</style></defs><path class="cls-1" d="M54,54.5v-20c0-6-7-6-7-6v-13c0-11.95-13.86-13-14-13H31s-14,1-14,13v13s-7,0-7,6v20S9.58,62,15.78,62H48.21C54.42,62,54,54.5,54,54.5ZM34,45.87S34,50,33.92,52C32,54.5,30,52,30,52V45.87a3.5,3.5,0,1,1,4,0ZM39,28.5H25v-12s1-7,7-6.86c7,.17,7,6.86,7,6.86Z" transform="translate(-10 -2.5)"/><path class="cls-2" d="M30.37,46.5" transform="translate(-10 -2.5)"/></svg>