<?xml version="1.0" encoding="utf-8"?>
<!-- Generator: Adobe Illustrator 25.1.0, SVG Export Plug-In . SVG Version: 6.00 Build 0)  -->
<svg version="1.1" id="Layer_1" xmlns="http://www.w3.org/2000/svg" xmlns:xlink="http://www.w3.org/1999/xlink" x="0px" y="0px"
	 viewBox="0 0 55.8 43.9" style="enable-background:new 0 0 55.8 43.9;" xml:space="preserve">
<style type="text/css">
	.st0{fill:#999999;}
	.st1{fill:#FFFFFF;}
	.st2{fill:none;stroke:#C23659;stroke-width:0.5;stroke-miterlimit:10;}
</style>
<g id="Layer_3">
	<path class="st0" d="M54.4,17.5h-2.5c-1.3-0.1-2.4,0.8-2.5,2.1c0,0.1,0,0.1,0,0.2v3.7H47V12.4l-1.2-1.2H22.3
		c-0.9,0.2-1.7,0.7-2.5,1.2l-5.4,5H9.9l-1.2,1.2v5.6H6.2v-4.3c0-1-0.8-1.8-1.8-1.9c0,0-0.1,0-0.1,0H1.8c-1,0-1.8,0.8-1.9,1.8
		c0,0,0,0,0,0.1v14.8c0,1.3,1,2.4,2.4,2.5c0,0,0.1,0,0.1,0h1.2c1.3,0,2.4-1,2.5-2.4c0,0,0-0.1,0-0.1v-3.7h2.5v4.9l1.9,1.2h3.7
		l6.4,6.8h15.9L47,33.4v-2.5h2.5v3.7c0,1.2,1.9,1.8,1.9,1.8h2.5c0.8-0.1,1.6-0.5,2-1.2V19.3C55.9,18.5,55.3,17.6,54.4,17.5z
		 M34.6,26l-9.9,12.4l3.7-9.9h-4.9l5.7-11.1H35L29.7,26H34.6z"/>
	<polygon class="st1" points="29.7,26 34.6,26 24.7,38.3 28.4,28.4 23.5,28.4 29.2,17.3 35,17.3 	"/>
	<path class="st2" d="M54.4,17.3L54.4,17.3"/>
	<path class="st2" d="M51.9,17.3"/>
	<path class="st0" d="M38.2,0H23.6c-1.4,0-2.5,1-2.6,2.4c0,0,0,0.1,0,0.1v2.1c0,0,0,1.6,2.5,1.6h3.7v2.5h7.4V6.2h3.7
		c2.5,0,2.5-1.6,2.5-1.6V2.5C40.8,1.1,39.7,0,38.2,0C38.3,0,38.3,0,38.2,0z"/>
</g>
</svg>
