<svg id="Layer_2" data-name="Layer 2" xmlns="http://www.w3.org/2000/svg" viewBox="0 0 59 59.5"><defs><style>.cls-1{fill:#fff;}.cls-2{fill:none;stroke:red;stroke-miterlimit:10;}</style></defs><path class="cls-1" d="M61.37,54.5v-20c0-6-7-6-7-6h-30s-7,0-7,6v20S17,62,23.16,62H55.58C61.8,62,61.37,54.5,61.37,54.5Zm-20-8.63s0,4.08-.07,6.08c-1.93,2.55-3.93,0-3.93,0V45.87a3.5,3.5,0,1,1,4,0Z" transform="translate(-2.38 -2.5)"/><path class="cls-2" d="M30.37,46.5" transform="translate(-2.38 -2.5)"/><path class="cls-1" d="M32.37,15.5v13h-8v-12s0-6.69-7-6.86c-6-.14-7,6.86-7,6.86v12h-8v-13c0-11.95,14-13,14-13h2C18.51,2.51,32.37,3.55,32.37,15.5Z" transform="translate(-2.38 -2.5)"/></svg>