<svg xmlns="http://www.w3.org/2000/svg" viewBox="0 0 55.77 43.9"><defs><style>.cls-1{fill:#fff200;}.cls-2{fill:none;stroke:#c23659;stroke-miterlimit:10;stroke-width:0.5px;}</style></defs><g id="Layer_3" data-name="Layer 3"><path class="cls-1" d="M58.62,27.68H56.15A2.3,2.3,0,0,0,53.67,30v3.71H51.2V22.55L50,21.31H26.47A6.65,6.65,0,0,0,24,22.55L18.64,27.5H14.1l-1.23,1.23V34.3H10.39V30a1.81,1.81,0,0,0-1.85-1.86H6.06A1.82,1.82,0,0,0,4.21,30V44.81a2.42,2.42,0,0,0,2.47,2.47H7.92a2.42,2.42,0,0,0,2.47-2.47V41.1h2.48V46l1.85,1.24h3.71l6.36,6.8h15.9L51.2,43.57V41.1h2.47v3.71c0,1.23,1.86,1.85,1.86,1.85H58a2.6,2.6,0,0,0,2-1.23V29.52A1.67,1.67,0,0,0,58.62,27.68ZM38.83,36.15,28.94,48.52l3.71-9.9H27.71L33.39,27.5h5.78l-5.28,8.65Z" transform="translate(-4.21 -10.18)"/><path class="cls-2" d="M58.62,27.5h0" transform="translate(-4.21 -10.18)"/><path class="cls-2" d="M56.15,27.5" transform="translate(-4.21 -10.18)"/><path class="cls-1" d="M42.46,10.18H27.79a2.48,2.48,0,0,0-2.56,2.48v2.09s0,1.62,2.48,1.62h3.71v2.47h7.41V16.37h3.71C45,16.37,45,14.75,45,14.75V12.66A2.48,2.48,0,0,0,42.46,10.18Z" transform="translate(-4.21 -10.18)"/></g></svg>